<svg width="24" height="24" viewBox="0 0 24 24" fill="none" xmlns="http://www.w3.org/2000/svg">
<path fill-rule="evenodd" clip-rule="evenodd" d="M4 2H20C21.1046 2 22 2.89543 22 4V20C22 21.1046 21.1046 22 20 22H4C2.89543 22 2 21.1046 2 20V4C2 2.89543 2.89543 2 4 2ZM4.00004 4V20H20V4H4.00004ZM13 9C12.4823 9 11.9353 9.15825 11.4522 9.45215L11 9H10V16H12V12C12 11.4242 12.594 11 13 11H14C14.4061 11 15 11.4242 15 12V16H17V12C17 10.1472 15.394 9 14 9H13ZM8.00004 8C8.55232 8 9.00004 7.55228 9.00004 7C9.00004 6.44771 8.55232 6 8.00004 6C7.44776 6 7.00004 6.44771 7.00004 7C7.00004 7.55228 7.44776 8 8.00004 8ZM7.00004 9V16H9.00004V9H7.00004Z" fill="#F0F4F8"/>
</svg>
