<svg width="24" height="24" viewBox="0 0 24 24" fill="none" xmlns="http://www.w3.org/2000/svg">
<path fill-rule="evenodd" clip-rule="evenodd" d="M21.1195 4.50827L22.5343 4.67349L21.8983 5.948C21.5882 6.56953 21.2778 7.19105 20.967 7.81258C20.9302 7.94422 20.8654 8.05962 20.7697 8.20987C20.7296 8.27265 20.5929 8.47236 20.5865 8.48194C20.5504 8.53608 20.5237 8.57878 20.5045 8.61299V11.0015C20.5045 17.1135 14.5895 20.9974 9.00354 20.9974C7.86051 20.9974 6.99207 20.9427 5.99765 20.7257C4.36115 20.3685 3.14327 19.6587 2.58597 18.418L2.01221 17.1407L3.40659 17.0124C4.66801 16.8964 5.76169 16.6561 6.60159 16.3343C4.29577 15.9635 3.0036 14.9508 3.0036 13.0489V12.0489H4.0036C4.22331 12.0489 4.42143 12.0311 4.59854 11.9983C2.868 10.9636 2.00122 9.30379 2.00122 7.00152C2.00103 6.9034 2.00103 6.90339 2.00044 6.79847C1.99394 5.63803 2.05627 5.01797 2.37395 4.22659C2.57754 3.71941 2.87183 3.24988 3.2679 2.81967L4.02251 2L4.75617 2.83847C7.17394 5.60161 9.56395 7.27795 12.0042 7.48072C12.0146 4.93105 13.9415 3.00152 16.5043 3.00152C17.6991 3.00152 18.7828 3.45501 19.6345 4.27273C20.1006 4.36851 20.5957 4.44709 21.1195 4.50827ZM18.9087 6.16201L18.6021 6.0926L18.3904 5.86027C17.8785 5.29854 17.236 5.00152 16.5044 5.00152C15.0414 5.00152 14.0042 6.0439 14.0042 7.50152C14.0042 7.73973 13.998 7.88942 13.9683 8.08615C13.8499 8.87116 13.4096 9.50152 12.5041 9.50152C9.50611 9.50152 6.8014 7.89541 4.16393 5.15228C4.02797 5.56561 3.99599 5.99047 4.00045 6.78727C4.00105 6.89383 4.00105 6.89383 4.00126 7.00152C4.00126 9.04953 4.83098 10.1698 6.79551 10.7942L7.4926 11.0157V11.7472C7.4926 12.6342 6.65226 13.4691 5.42272 13.8431C5.98635 14.2708 7.13904 14.5015 9.00393 14.5015H10.0039V15.5015C10.0039 16.9343 8.35766 18.0561 5.87079 18.6419C6.68182 18.8903 7.7617 18.9974 9.00358 18.9974C13.618 18.9974 18.5046 15.7888 18.5046 11.0015V8.50152C18.5046 8.20774 18.5897 7.95273 18.7312 7.68759C18.7865 7.58392 18.8474 7.48509 18.9226 7.37237C18.9367 7.35115 18.9892 7.27426 19.0309 7.21279L19.1102 7.05429C19.2386 6.79745 19.367 6.54061 19.4953 6.28377C19.2959 6.24599 19.1003 6.20541 18.9087 6.16201Z" fill="#F0F4F8"/>
</svg>
